<svg width="95" height="70" viewBox="0 0 95 70" fill="none" xmlns="http://www.w3.org/2000/svg">
<path d="M43.4131 66.9375C30.3252 60.4164 22.7084 50.3694 22.2412 36.2661C21.7371 21.0535 29.4094 10.1714 43.3313 3.07152C42.9908 3.07152 42.682 3.07152 42.3759 3.07152C35.8543 3.07152 29.3355 3.07152 22.8139 3.07152C22.5183 3.07152 22.2148 3.10198 21.9272 3.05121C21.08 2.89891 20.5627 2.39884 20.56 1.55864C20.5548 0.718427 21.0641 0.220903 21.9113 0.0482921C22.0697 0.015293 22.2386 0.0305235 22.4049 0.0305235C34.6878 0.0330619 46.9734 -0.058321 59.2563 0.0635219C76.472 0.231056 91.3968 12.6133 94.2709 28.9327C97.4802 47.1431 85.9098 64.4245 67.401 68.8591C64.5242 69.5495 61.4917 69.9074 58.5253 69.9328C45.4849 70.047 32.4445 69.981 19.4014 69.981C19.2035 69.981 19.0029 69.9937 18.8102 69.9684C17.9578 69.8592 17.3428 69.2018 17.3956 68.4149C17.451 67.5772 17.9525 67.0873 18.8076 66.9553C19.0979 66.9121 19.3988 66.94 19.6944 66.94C27.2346 66.94 34.7775 66.94 42.3178 66.94C42.6398 66.9375 42.9591 66.9375 43.4131 66.9375ZM25.2869 34.9664C25.2816 52.5753 40.1272 66.9223 58.3669 66.9375C76.757 66.9553 91.6581 52.6616 91.6792 34.9867C91.7003 17.4668 76.8151 3.08929 58.6414 3.07152C40.2011 3.05375 25.2895 17.3144 25.2869 34.9664Z" fill="#373737"/>
<path d="M9.58347 27.402C12.0485 27.402 14.5135 27.3995 16.9812 27.4046C18.2322 27.4071 18.9474 27.9554 18.958 28.9048C18.9712 29.8592 18.2507 30.443 17.0182 30.443C11.9878 30.4481 6.95745 30.4481 1.92709 30.443C0.691933 30.443 -0.0206575 29.8567 0.000456323 28.8946C0.0189309 27.9732 0.718324 27.4096 1.89014 27.4071C4.45282 27.3969 7.01815 27.402 9.58347 27.402Z" fill="#373737"/>
<path d="M9.4594 42.6094C6.96005 42.6094 4.46335 42.6145 1.96401 42.6069C0.715656 42.6044 0.00306507 42.0485 0.000425847 41.0915C-0.0048526 40.1345 0.707738 39.5684 1.95345 39.5684C6.98381 39.5634 12.0142 39.5634 17.0445 39.5684C18.2612 39.5684 18.9896 40.1751 18.9606 41.127C18.9342 42.0434 18.2295 42.6018 17.0577 42.6044C14.5214 42.6145 11.9904 42.6094 9.4594 42.6094Z" fill="#373737"/>
<path d="M20.6471 9.156C22.6186 9.156 24.5901 9.14839 26.5643 9.15854C27.7282 9.16362 28.4302 9.73475 28.4434 10.6587C28.4566 11.5827 27.7493 12.1945 26.6038 12.197C22.5606 12.2046 18.5199 12.2046 14.4766 12.197C13.3338 12.1945 12.6292 11.5776 12.6476 10.6486C12.6661 9.72714 13.3655 9.16362 14.5347 9.15854C16.5722 9.14839 18.6096 9.156 20.6471 9.156Z" fill="#373737"/>
<path d="M20.6471 57.8145C22.125 57.8145 23.603 57.8018 25.081 57.8196C26.1657 57.8297 26.8492 58.4237 26.8598 59.3172C26.873 60.2108 26.1841 60.8479 25.1205 60.853C22.0643 60.8682 19.0107 60.8682 15.9545 60.853C14.8936 60.8479 14.2074 60.2031 14.2258 59.3071C14.2443 58.4136 14.9252 57.8297 16.0152 57.8196C17.5592 57.8044 19.1031 57.8145 20.6471 57.8145Z" fill="#373737"/>
<path d="M18.2032 21.3226C16.9549 21.3226 15.7065 21.3327 14.4581 21.32C13.3259 21.3073 12.6186 20.6854 12.645 19.7589C12.6714 18.8679 13.355 18.2892 14.445 18.2841C16.9417 18.2714 19.4384 18.2714 21.9324 18.2841C23.0092 18.2892 23.6928 18.8984 23.6981 19.7945C23.7033 20.688 23.0145 21.3023 21.9456 21.3175C20.6999 21.3353 19.4516 21.3226 18.2032 21.3226Z" fill="#373737"/>
<path d="M13.4367 36.5275C12.1883 36.5275 10.94 36.5402 9.69162 36.525C8.60426 36.5123 7.9207 35.9285 7.90223 35.0375C7.88111 34.1084 8.58315 33.4941 9.72593 33.4891C12.1883 33.4789 14.6534 33.4789 17.1158 33.4891C18.2638 33.4941 18.9685 34.0957 18.9553 35.0222C18.9447 35.9437 18.2401 36.5174 17.0814 36.525C15.8674 36.5351 14.6534 36.5275 13.4367 36.5275Z" fill="#373737"/>
<path d="M14.9939 48.6915C16.2423 48.6915 17.4906 48.6814 18.739 48.6941C19.829 48.7068 20.5152 49.2804 20.5416 50.1714C20.568 51.0954 19.858 51.7249 18.7258 51.73C16.2634 51.7427 13.7984 51.7401 11.336 51.73C10.1853 51.7249 9.48324 51.1284 9.48588 50.2044C9.49116 49.2779 10.1879 48.7042 11.3492 48.6941C12.5632 48.6839 13.7773 48.6915 14.9939 48.6915Z" fill="#373737"/>
<path d="M7.89701 18.2791C8.42221 18.2791 8.94742 18.2562 9.47263 18.2841C10.4069 18.3349 11.043 18.9467 11.0562 19.7742C11.0694 20.5992 10.4386 21.2718 9.52013 21.3074C8.43805 21.348 7.35333 21.348 6.27389 21.3074C5.35544 21.2718 4.7273 20.6017 4.7405 19.7742C4.7537 18.9467 5.38711 18.3349 6.32139 18.2841C6.8466 18.2562 7.3718 18.2791 7.89701 18.2791Z" fill="#373737"/>
<path d="M4.67185 51.7299C4.14665 51.7299 3.61881 51.7603 3.09624 51.7223C2.18307 51.6588 1.55493 50.9988 1.57605 50.1738C1.59716 49.3844 2.20418 48.7396 3.07513 48.7066C4.18888 48.6635 5.30791 48.661 6.42166 48.7092C7.28469 48.7473 7.88643 49.4123 7.89434 50.2018C7.89962 50.9887 7.30052 51.6486 6.44277 51.7172C5.85686 51.7654 5.26304 51.7273 4.67185 51.7273C4.67185 51.7273 4.67185 51.7273 4.67185 51.7299Z" fill="#373737"/>
<path d="M10.3066 57.8144C10.4702 57.8144 10.6338 57.8119 10.7975 57.8144C11.9429 57.8373 12.6449 58.4236 12.637 59.3476C12.6291 60.2716 11.9271 60.8402 10.7737 60.858C10.3805 60.863 9.98723 60.8706 9.59398 60.8554C8.5858 60.8173 7.92336 60.231 7.90224 59.3705C7.88113 58.4744 8.56205 57.8525 9.61774 57.8144C9.84735 57.8068 10.077 57.8144 10.3066 57.8144Z" fill="#373737"/>
<path d="M28.4486 35.0401C28.4328 19.1142 41.8849 6.12019 58.3906 6.11511C75.0467 6.11004 88.5252 19.066 88.5147 35.0706C88.5041 51.0421 75.0071 63.9042 58.2666 63.8966C41.9087 63.8915 28.4618 50.8797 28.4486 35.0401ZM70.4624 58.0329C69.9953 57.2434 69.5123 56.4565 69.061 55.6569C68.5384 54.733 68.7337 53.8902 69.5545 53.4384C70.3727 52.984 71.2251 53.2455 71.7978 54.1491C72.2887 54.9233 72.7506 55.7179 73.2626 56.5657C76.3479 54.5756 78.8815 52.1768 80.8926 49.2069C79.99 48.7043 79.1877 48.2727 78.4012 47.8184C77.459 47.2726 77.1819 46.4553 77.6464 45.6658C78.1161 44.8662 78.9844 44.6708 79.9504 45.1759C80.7844 45.6125 81.5999 46.077 82.4761 46.5593C84.123 43.3787 85.052 40.0941 85.25 36.6215C85.1972 36.5987 85.1655 36.5733 85.1365 36.5733C84.218 36.5581 83.2969 36.5505 82.3785 36.5276C81.3017 36.4997 80.6181 35.8955 80.6208 34.9995C80.626 34.1009 81.307 33.5069 82.3917 33.4892C83.3365 33.4739 84.284 33.4866 85.2552 33.4866C85.0415 29.9126 84.123 26.6279 82.4682 23.4549C81.6131 23.9219 80.8213 24.3662 80.019 24.7901C78.9897 25.3358 78.1161 25.1607 77.6358 24.3332C77.1607 23.5158 77.4643 22.7137 78.4856 22.1324C79.2668 21.6882 80.0586 21.2592 80.8952 20.7946C78.834 17.8171 76.332 15.4056 73.26 13.4511C72.7427 14.304 72.2808 15.0985 71.7873 15.8752C71.2172 16.7738 70.3489 17.0277 69.5387 16.5657C68.7284 16.1037 68.5437 15.2686 69.0715 14.337C69.5255 13.5374 70.0058 12.7505 70.4914 11.9255C67.1792 10.339 63.7641 9.44549 60.1589 9.26526C60.1246 9.33634 60.1008 9.3668 60.1008 9.39472C60.0876 10.2476 60.0823 11.1005 60.0639 11.956C60.0428 13.0551 59.4093 13.7379 58.4487 13.7151C57.5223 13.6948 56.9232 13.0322 56.9047 11.9813C56.8915 11.0802 56.9021 10.1765 56.9021 9.27288C53.0699 9.47595 48.6624 10.6461 46.5194 12.022C46.7437 12.4002 46.968 12.7809 47.1924 13.1642C47.4194 13.5475 47.6569 13.9283 47.8733 14.3192C48.3906 15.2483 48.2164 16.0935 47.4246 16.553C46.5933 17.0327 45.7091 16.7535 45.1153 15.7965C44.6455 15.0452 44.2021 14.2786 43.7086 13.4561C40.6128 15.4336 38.0897 17.8425 36.0786 20.8048C36.9839 21.3074 37.7862 21.7339 38.5727 22.1933C39.5175 22.7441 39.7894 23.559 39.3249 24.3509C38.8577 25.1455 37.9841 25.3434 37.0208 24.8408C36.1868 24.4042 35.3713 23.9397 34.4951 23.4574C32.8429 26.638 31.9166 29.9252 31.7133 33.4892C32.6925 33.4892 33.6426 33.4765 34.5901 33.4917C35.6669 33.512 36.3531 34.1187 36.3478 35.0173C36.3425 35.9133 35.6563 36.5098 34.5743 36.5276C33.6294 36.5428 32.6846 36.5301 31.7107 36.5301C31.9298 40.1042 32.8429 43.3914 34.466 46.4908C34.598 46.4654 34.6693 46.4654 34.7247 46.4375C35.4399 46.0517 36.1499 45.6557 36.8677 45.2724C37.9551 44.6885 38.8419 44.851 39.3275 45.7115C39.7894 46.5289 39.4753 47.3285 38.4539 47.9098C37.678 48.3514 36.8915 48.7779 36.0733 49.2297C38.1689 52.2149 40.655 54.639 43.7192 56.5657C44.2285 55.7153 44.6772 54.9437 45.1523 54.1872C45.7276 53.2658 46.551 52.9942 47.3798 53.4282C48.2481 53.8826 48.4407 54.7304 47.8786 55.7128C47.4273 56.5048 46.9575 57.2866 46.4824 58.0938C49.8184 59.6701 53.223 60.5763 56.9021 60.749C56.9021 60.1677 56.9021 59.6651 56.9021 59.1599C56.9021 57.0251 57.2874 56.3169 58.4592 56.2991C59.6442 56.2814 60.0665 57.0201 60.0665 59.1142C60.0665 59.6473 60.0665 60.1829 60.0665 60.716C63.3946 60.6601 67.8733 59.5026 70.4624 58.0329Z" fill="#373737"/>
<path d="M56.8995 30.6868C56.8995 26.1659 56.8942 21.7059 56.9101 17.246C56.9127 16.817 56.9101 16.2205 57.1766 15.9996C57.62 15.6315 58.2956 15.2939 58.8472 15.3269C59.6311 15.3752 60.056 16.025 60.0586 16.8221C60.0666 18.34 60.0613 19.8605 60.0639 21.3785C60.0639 24.2265 60.0692 27.0746 60.0586 29.9227C60.056 30.4177 60.1114 30.7401 60.6815 31.0218C63.1993 32.2682 63.97 35.0807 62.4603 37.411C62.1753 37.8526 62.1753 38.1446 62.4366 38.5735C63.6717 40.584 64.87 42.6172 66.0893 44.6378C66.4746 45.2774 66.5749 45.9755 65.989 46.4603C65.5984 46.7853 64.9122 47.0213 64.4266 46.935C63.9779 46.8563 63.5081 46.3588 63.2415 45.9349C62.0301 44.0209 60.9032 42.0588 59.705 40.1372C59.5414 39.8757 59.1534 39.5914 58.8631 39.5838C56.1737 39.5077 54.3579 38.2029 53.8354 35.9006C53.355 33.7836 54.482 31.8417 56.8995 30.6868ZM58.4619 33.4841C57.6042 33.4942 56.9048 34.1745 56.9021 34.9995C56.8995 35.8625 57.657 36.5631 58.549 36.5251C59.4041 36.4895 60.085 35.7864 60.0586 34.964C60.0375 34.139 59.317 33.4739 58.4619 33.4841Z" fill="#373737"/>
</svg>
