<svg width="50" height="48" viewBox="0 0 50 48" fill="none" xmlns="http://www.w3.org/2000/svg">
<g clip-path="url(#clip0_83_1199)">
<path d="M40.0154 26.6546L37.2309 25.049L42.9729 23.8136L41.1118 29.9146L40.0154 26.6546ZM39.1784 27.5922C22.2272 41.6581 -0.346017 36.199 3.62626 24.4254C-11.3111 36.1983 23.7398 49.3759 39.1784 27.5922ZM2.51948 39.0505C-5.23501 44.7512 6.7472 50.9266 19.8108 42.5977C5.9202 46.0061 2.21436 43.6612 2.51948 39.0505ZM14.6504 9.9453H39.5092C40.5169 9.9453 41.3336 9.13592 41.3336 8.13716C41.3336 7.1384 40.5166 6.32901 39.5092 6.32901H14.6504C13.6427 6.32901 12.826 7.13873 12.826 8.13716C12.826 9.13559 13.6427 9.9453 14.6504 9.9453ZM12.826 14.2398C12.826 15.2385 13.6427 16.0479 14.6504 16.0479H46.351C47.3587 16.0479 48.1754 15.2382 48.1754 14.2398C48.1754 13.241 47.3584 12.4316 46.351 12.4316H14.6504C13.6427 12.4316 12.826 13.2413 12.826 14.2398ZM6.32636 10.9626C7.05266 5.99058 11.4578 3.39056 12.8263 3.61662H44.0707C45.0785 3.61662 45.8951 2.80724 45.8951 1.80848C45.8951 0.809717 45.0781 0 44.0704 0H13.4162C12.8747 0 12.3355 0.0961745 11.8313 0.291498C6.99697 2.16475 5.93254 7.18764 6.32636 10.9626ZM42.9376 18.4216L14.0532 18.1013C12.7927 18.0874 11.5535 17.7655 10.4494 17.163C3.59592 13.4235 2.21903 7.10369 8.721 0.452119C-1.1997 6.21598 0.852803 20.2297 12.1417 21.6988L42.9376 22.0378C44.8197 22.0378 46.3513 23.5555 46.3513 25.4211V32.3222H39.9657C38.958 32.3222 38.1413 33.132 38.1413 34.1304C38.1413 35.1291 38.9583 35.9385 39.9657 35.9385H46.3513V40.6924C46.3513 42.5607 44.823 44.0757 42.9376 44.0757H25.8043C24.0993 44.0757 22.4222 44.4987 20.9233 45.3045C19.1776 46.2428 17.3298 47.0386 15.38 47.692H42.9376C46.8382 47.692 50.0001 44.5582 50.0001 40.6924V25.4211C50.0001 21.5616 46.8318 18.4216 42.9376 18.4216Z" fill="url(#paint0_linear_83_1199)"/>
</g>
<defs>
<linearGradient id="paint0_linear_83_1199" x1="50.0205" y1="13.5504" x2="0.219761" y2="48.3148" gradientUnits="userSpaceOnUse">
<stop stop-color="#75B3FE"/>
<stop offset="0.803451" stop-color="#7DDFFC" stop-opacity="0.851187"/>
</linearGradient>
<clipPath id="clip0_83_1199">
<rect width="50" height="47.6923" fill="white"/>
</clipPath>
</defs>
</svg>
