<svg width="70" height="70" viewBox="0 0 70 70" fill="none" xmlns="http://www.w3.org/2000/svg">
<path d="M0.0042314 40.9693C0.0789862 40.8356 0.173488 40.7093 0.224264 40.5668C0.947835 38.5305 2.56987 37.3096 4.64467 37.289C6.62638 37.2699 8.60809 37.2597 10.5898 37.292C12.4361 37.3228 13.776 38.2631 14.69 39.9879C16.1795 39.2313 17.6633 38.4849 19.1415 37.7269C21.7381 36.3943 24.3997 35.2689 27.2813 34.7768C29.7552 34.3551 32.232 34.5152 34.7102 34.6137C37.2815 34.7151 39.8528 34.859 42.4241 34.9486C45.3578 35.05 47.5737 37.1025 47.8191 39.9982C48.0631 42.8778 46.2055 45.3915 43.3663 45.9777C41.0023 46.4655 38.6327 46.9253 36.2646 47.3852C35.0036 47.6305 34.864 48.0434 35.4028 49.2275C35.9246 50.3735 36.6355 50.7819 37.8626 50.6703C39.9247 50.4837 42.0023 50.4675 44.0729 50.4073C46.8149 50.3279 49.2084 49.3333 51.3255 47.5365C54.5202 44.8244 57.7206 42.1211 60.9407 39.4414C63.4711 37.3361 66.8125 37.7474 68.8224 40.3699C70.5375 42.606 70.3923 45.9865 68.3005 47.8436C64.2468 51.443 60.1889 55.0498 55.9632 58.4231C51.5949 61.9109 46.5173 63.2508 41.0221 62.9481C35.9726 62.6704 30.9203 62.4589 25.8708 62.2018C22.9046 62.0519 20.0301 62.6866 17.1457 63.2493C16.4785 63.3786 15.8128 63.5108 15.092 63.6518C15.092 64.1749 15.1047 64.667 15.0906 65.1607C15.0088 67.9154 13.2189 69.862 10.5799 69.9517C8.57706 70.0192 6.56996 70.0134 4.5671 69.9502C2.42601 69.8826 0.882953 68.625 0.176309 66.5211C0.135405 66.3977 0.0592397 66.2875 0 66.1715C0.00423141 57.7722 0.0042314 49.37 0.0042314 40.9693ZM15.061 60.5225C15.5956 60.427 16.0624 60.333 16.5307 60.2595C18.8439 59.8966 21.1598 59.2282 23.473 59.2399C28.9781 59.2693 34.4888 59.5176 39.9854 59.8746C45.3113 60.2199 50.2578 59.2355 54.509 55.7639C58.4667 52.5332 62.2919 49.1247 66.1397 45.7485C66.5516 45.3871 66.8492 44.748 66.9634 44.1853C67.1834 43.104 66.6066 42.0624 65.6686 41.5158C64.7363 40.9737 63.6996 41.0648 62.8082 41.8126C59.5105 44.5776 56.2255 47.3602 52.9278 50.1237C50.6725 52.0131 48.1068 53.1649 45.214 53.3765C42.8994 53.5454 40.558 53.4205 38.259 53.7056C35.4437 54.0552 33.7553 52.8285 32.5804 50.2795C31.4534 47.8318 32.5762 45.0742 35.1334 44.5188C37.6694 43.9679 40.2223 43.5007 42.764 42.9791C44.1857 42.6868 44.9728 41.6231 44.8543 40.2112C44.7457 38.9051 43.7118 38.028 42.2999 37.9766C39.3873 37.8708 36.4705 37.815 33.5649 37.5946C29.1685 37.2597 25.0132 38.0339 21.0795 40.1245C19.2797 41.081 17.4517 41.9772 15.6238 42.8704C15.2006 43.0776 15.0455 43.3215 15.0483 43.8239C15.068 49.1614 15.061 54.5004 15.061 59.8379C15.061 60.0436 15.061 60.2522 15.061 60.5225ZM2.88441 53.6468C2.88441 57.4182 2.88159 61.1895 2.88582 64.9609C2.88723 66.2464 3.50078 66.8899 4.72366 66.8928C6.54457 66.8987 8.3669 66.8972 10.1878 66.8943C11.556 66.8928 12.147 66.2861 12.1484 64.8683C12.1512 57.3726 12.1512 49.8769 12.1484 42.3812C12.1484 40.9502 11.5715 40.3449 10.2019 40.339C8.42614 40.3317 6.65036 40.3332 4.87458 40.339C3.45001 40.3434 2.88441 40.9311 2.88441 42.4032C2.883 46.1511 2.88441 49.8989 2.88441 53.6468Z" fill="#373737"/>
<path d="M44.8486 25.9926C44.8486 27.234 44.8486 28.3903 44.8486 29.6067C45.056 29.617 45.2492 29.6361 45.4424 29.6361C48.4256 29.6376 51.4101 29.6508 54.3933 29.6214C54.7727 29.6185 55.2001 29.4775 55.523 29.2644C57.9801 27.6395 60.416 25.9823 62.8575 24.3339C63.4033 23.9651 63.9605 23.899 64.5204 24.2766C65.0197 24.6145 65.3173 25.1228 65.1763 25.7252C65.0818 26.1278 64.8448 26.6023 64.5289 26.8227C61.8081 28.7194 59.0619 30.5749 56.3044 32.4143C56.0181 32.6053 55.6204 32.6935 55.2734 32.6935C42.0629 32.7067 28.8539 32.7067 15.6435 32.7023C14.6336 32.7023 13.9523 32.0529 13.9664 31.1464C13.9791 30.2723 14.635 29.6464 15.6223 29.642C18.5829 29.6273 21.5435 29.6361 24.5054 29.6361C24.7523 29.6361 24.9977 29.6361 25.2812 29.6361C25.2812 28.4153 25.2812 27.2414 25.2812 25.9911C25.0344 25.9911 24.7918 25.9911 24.5492 25.9911C21.566 25.9911 18.5815 25.9999 15.5983 25.9852C14.6279 25.9808 13.9664 25.3285 13.9678 24.4485C13.9678 23.5685 14.6279 22.9441 15.5997 22.9088C15.7591 22.9029 15.9185 22.9073 16.0779 22.9073C18.9016 22.9073 21.7268 22.9073 24.5506 22.9073C24.7762 22.9073 25.0019 22.9073 25.2727 22.9073C25.2727 21.591 25.2727 20.304 25.2727 18.945C25.016 18.945 24.7734 18.945 24.5308 18.945C21.6154 18.945 18.6999 18.9479 15.7845 18.9435C14.6505 18.942 13.9481 18.3382 13.9664 17.4009C13.9833 16.4797 14.6674 15.9067 15.7605 15.9008C15.8973 15.8994 16.0342 15.9008 16.171 15.9008C18.9722 15.9008 21.7734 15.9008 24.5745 15.9008C24.7988 15.9008 25.0217 15.9008 25.2826 15.9008C25.2826 14.6139 25.2826 13.3739 25.2826 12.0737C23.9159 12.0737 22.5773 12.0737 21.2402 12.0737C19.3727 12.0737 17.5053 12.0766 15.6378 12.0722C14.7873 12.0707 14.3021 11.7651 14.068 11.0981C13.8084 10.3606 14.1159 9.82289 14.6209 9.33806C17.2655 6.79639 19.9101 4.25326 22.5407 1.6969C22.9864 1.2635 23.4673 1.07985 24.0767 1.08279C27.2417 1.10042 30.4082 1.10336 33.5733 1.0725C33.9118 1.06956 34.3181 0.887387 34.5691 0.649382C35.0402 0.202754 35.5438 -0.0014613 36.17 7.86889e-06C41.4311 0.00735373 46.6921 0.00735362 51.9532 0.00147693C52.657 7.76248e-06 53.2395 0.177778 53.6457 0.844781C53.7416 1.00198 54.0548 1.07985 54.2691 1.08132C57.3214 1.09601 60.3737 1.10189 63.4245 1.08426C64.1706 1.07985 64.7771 1.25762 65.0931 2.02746C65.3752 2.7121 65.1989 3.26451 64.4781 3.95796C61.8871 6.45555 59.289 8.94579 56.7064 11.4522C56.2635 11.8827 55.7896 12.0869 55.1775 12.0839C51.7627 12.0663 48.348 12.0751 44.8825 12.0751C44.8825 13.3342 44.8825 14.5757 44.8825 15.87C45.0574 15.8803 45.2534 15.9008 45.4509 15.9008C48.4115 15.9023 51.372 15.9155 54.3326 15.8862C54.6824 15.8832 55.09 15.7319 55.3679 15.5086C57.7798 13.5649 60.1649 11.583 62.5683 9.62896C62.8476 9.4027 63.1791 9.19555 63.5162 9.10593C64.1452 8.93992 64.7969 9.33953 65.0776 9.96834C65.3667 10.6162 65.2214 11.32 64.6375 11.8166C63.6149 12.6848 62.5698 13.5267 61.5331 14.3788C59.9068 15.7143 58.2692 17.0365 56.6585 18.3926C56.1874 18.7892 55.6965 18.9582 55.0957 18.9553C51.7035 18.9391 48.3099 18.9479 44.874 18.9479C44.874 20.2613 44.874 21.5513 44.874 22.9103C45.5271 22.9103 46.1801 22.9103 46.8317 22.9103C49.3367 22.9103 51.8431 22.9264 54.3481 22.8926C54.7233 22.8882 55.1535 22.7413 55.4582 22.5151C57.8136 20.7726 60.1437 18.9935 62.4823 17.226C62.629 17.1144 62.7757 17.0013 62.9308 16.9028C63.6981 16.4224 64.5063 16.5855 64.9718 17.3068C65.4132 17.9929 65.2821 18.8495 64.5952 19.3843C63.3554 20.348 62.093 21.2795 60.8405 22.2256C59.4413 23.2834 58.0675 24.3824 56.6274 25.3755C56.131 25.7179 55.4666 25.9559 54.8756 25.9647C51.554 26.022 48.2309 25.9926 44.8486 25.9926ZM48.6103 3.08233C44.5369 3.08233 40.6454 3.07498 36.7525 3.09702C36.4958 3.09849 36.1883 3.25863 35.9937 3.44668C33.5522 5.79442 31.1177 8.15097 28.71 10.5369C28.4703 10.7734 28.294 11.2113 28.2925 11.558C28.2672 17.3671 28.2742 23.1777 28.2756 28.9868C28.2756 29.1939 28.294 29.3996 28.3024 29.5935C32.8469 29.5935 37.3421 29.5935 41.8909 29.5935C41.8909 29.2938 41.8909 29.0382 41.8909 28.7825C41.8909 22.9969 41.9247 17.2099 41.8655 11.4243C41.8514 10.1241 42.204 9.19996 43.1518 8.3449C44.9854 6.69208 46.7189 4.92026 48.6103 3.08233ZM60.0154 4.13426C57.2734 4.13426 54.7501 4.1225 52.2268 4.15189C51.9729 4.15482 51.6809 4.3561 51.4778 4.54709C50.0533 5.87816 48.647 7.2298 47.238 8.5785C47.1195 8.69163 47.0222 8.8312 46.8473 9.03835C49.4905 9.03835 52.0138 9.04129 54.5371 9.031C54.7036 9.031 54.9123 8.9693 55.0322 8.85617C56.6528 7.33705 58.2608 5.80323 60.0154 4.13426ZM31.0387 4.13426C28.7665 4.13426 26.7029 4.12397 24.6408 4.14895C24.4279 4.15189 24.1824 4.32084 24.0104 4.47951C22.5519 5.83556 21.1048 7.20776 19.6577 8.5785C19.5364 8.69309 19.4362 8.8312 19.2585 9.03835C21.4419 9.03835 23.5068 9.04276 25.5703 9.031C25.7382 9.02954 25.9483 8.98105 26.0654 8.87086C27.6818 7.3488 29.2841 5.81058 31.0387 4.13426Z" fill="#373737"/>
</svg>
