<svg width="60" height="70" viewBox="0 0 60 70" fill="none" xmlns="http://www.w3.org/2000/svg">
<path d="M7.03766 6.95531C7.03766 5.07262 7.03261 3.28639 7.03934 1.50183C7.0427 0.382525 7.4178 0.00997851 8.52795 0.00997851C20.8405 0.00831536 33.153 0.0116421 45.4656 0C46.0627 0 46.4967 0.197915 46.9071 0.608714C49.1139 2.81405 51.3292 5.01274 53.5663 7.18648C54.0457 7.65217 54.2357 8.1428 54.234 8.80307C54.2189 19.6867 54.2273 30.5688 54.2122 41.4524C54.2122 41.9896 54.3821 42.3389 54.7706 42.7181C59.3525 47.157 61.0194 52.5057 59.2179 58.6029C57.4047 64.7366 53.1138 68.4703 46.7506 69.7077C42.5186 70.5293 38.5944 69.593 35.0285 67.223C34.5458 66.902 34.0815 66.7739 33.5147 66.7756C22.938 66.7872 12.3596 66.7839 1.78296 66.7839C0.274172 66.7839 0 66.5128 0 65.021C0 46.2406 0 27.4603 0 8.68C0 7.26299 0.311177 6.9603 1.77119 6.9603C3.50033 6.95364 5.23115 6.95531 7.03766 6.95531ZM28.2633 51.2501C28.0026 51.2501 27.7436 51.2501 27.4845 51.2501C21.5654 51.2501 15.6463 51.2501 9.72892 51.2501C9.49176 51.2501 9.25291 51.26 9.01574 51.2384C8.41189 51.1852 8.05025 50.8376 7.98801 50.2555C7.92241 49.6368 8.23023 49.211 8.84585 49.0597C9.11666 48.9932 9.41102 48.9948 9.6936 48.9948C15.897 48.9915 22.102 48.9882 28.3054 49.0015C28.7898 49.0031 29.0219 48.8801 29.2456 48.4077C29.7721 47.2868 30.4248 46.2223 31.0269 45.1363C31.1093 44.9883 31.1918 44.8386 31.3112 44.6224C30.9512 44.6224 30.6939 44.6224 30.4365 44.6224C23.52 44.6224 16.6017 44.6224 9.68519 44.6224C9.47157 44.6224 9.25627 44.6307 9.04433 44.6141C8.40852 44.5609 8.03175 44.2083 7.98633 43.5879C7.93923 42.9626 8.27396 42.5584 8.8879 42.4204C9.16208 42.3588 9.45307 42.3672 9.73733 42.3672C17.4629 42.3638 25.1886 42.3705 32.9125 42.3489C33.296 42.3472 33.7468 42.1842 34.0529 41.9497C36.4566 40.1119 39.1344 38.9527 42.1654 38.64C43.0737 38.5469 43.9904 38.5236 44.8718 38.4704C44.8718 31.1043 44.8718 23.7814 44.8718 16.412C42.8819 16.412 40.9375 16.417 38.9914 16.4103C38.0394 16.407 37.6491 16.0195 37.6441 15.0881C37.6357 13.9356 37.6424 12.7847 37.6424 11.6321C37.6424 10.8421 37.6424 10.0538 37.6424 9.24879C25.8193 9.24879 14.0871 9.24879 2.33635 9.24879C2.33635 27.6865 2.33635 46.0943 2.33635 64.4755C12.1898 64.4755 21.9893 64.4755 31.9033 64.4755C30.2162 62.4863 29.1161 60.3076 28.4955 57.8827C28.1876 57.8827 27.9269 57.8827 27.6679 57.8827C21.6781 57.8827 15.6884 57.8827 9.69696 57.8827C9.48335 57.8827 9.26804 57.891 9.05611 57.8744C8.4203 57.8278 8.04015 57.4769 7.98801 56.8565C7.93419 56.2312 8.26555 55.8237 8.87781 55.6824C9.1503 55.6192 9.44298 55.6275 9.72724 55.6275C15.5992 55.6242 21.4696 55.6258 27.3416 55.6258C27.5905 55.6258 27.8411 55.6258 28.0312 55.6258C28.1103 54.124 28.1843 52.7236 28.2633 51.2501ZM30.3676 54.2055C30.3558 61.6547 36.4448 67.707 43.9635 67.7169C51.4721 67.7269 57.6116 61.6681 57.6133 54.2454C57.6149 46.8477 51.5108 40.7905 44.0392 40.7739C36.502 40.7589 30.3793 46.7712 30.3676 54.2055ZM9.33869 6.95531C9.68183 6.95531 9.96273 6.95531 10.2436 6.95531C19.584 6.95531 28.9244 6.95863 38.2631 6.94699C38.9258 6.94533 39.4338 7.1316 39.9064 7.60726C42.0897 9.80096 44.2915 11.9797 46.5118 14.1368C47.008 14.6191 47.2149 15.1264 47.2132 15.8149C47.1947 23.2176 47.2014 30.6203 47.2014 38.0247C47.2014 38.2791 47.2014 38.5353 47.2014 38.6916C48.8128 39.2953 50.3502 39.8724 51.9044 40.4562C51.9044 30.1696 51.9044 19.8447 51.9044 9.52654C51.8439 9.50159 51.8018 9.46833 51.7614 9.46833C49.9314 9.465 48.1013 9.46334 46.2713 9.46168C45.0165 9.46001 44.6649 9.11408 44.6649 7.87004C44.6632 6.02061 44.6649 4.17119 44.6649 2.30513C32.8536 2.30513 21.1029 2.30513 9.33869 2.30513C9.33869 3.84355 9.33869 5.34704 9.33869 6.95531ZM50.0273 7.16486C49.0264 6.18194 47.9718 5.1458 46.9861 4.17784C46.9861 5.08093 46.9861 6.1204 46.9861 7.16486C48.0761 7.16486 49.1274 7.16486 50.0273 7.16486ZM42.9425 14.1135C41.9619 13.1522 40.9106 12.1211 39.9754 11.2047C39.9754 12.0529 39.9754 13.0957 39.9754 14.1135C41.0586 14.1135 42.0914 14.1135 42.9425 14.1135Z" fill="#373737"/>
<path d="M23.5637 24.7444C18.9516 24.7444 14.3394 24.7444 9.72893 24.7444C9.49177 24.7444 9.25124 24.7511 9.01743 24.7245C8.38667 24.6529 8.01662 24.2937 7.98466 23.67C7.9527 23.0414 8.30088 22.6538 8.91315 22.5225C9.1419 22.4726 9.3858 22.4859 9.62297 22.4859C18.9415 22.4842 28.26 22.4842 37.5802 22.4875C37.8392 22.4875 38.1083 22.4842 38.3573 22.5441C38.9393 22.6854 39.2488 23.0813 39.2185 23.6717C39.1882 24.2588 38.8518 24.628 38.2547 24.7162C37.9973 24.7544 37.7332 24.7444 37.4725 24.7444C32.8335 24.7444 28.1977 24.7444 23.5637 24.7444Z" fill="#373737"/>
<path d="M23.562 31.3736C18.9499 31.3736 14.3377 31.3736 9.72555 31.3736C9.48838 31.3736 9.24784 31.3803 9.01404 31.3537C8.38328 31.2822 8.025 30.9229 7.97959 30.2976C7.93585 29.7022 8.34964 29.2282 8.98208 29.1334C9.19234 29.1018 9.40932 29.1134 9.62294 29.1134C18.9414 29.1134 28.26 29.1118 37.5801 29.1151C37.8392 29.1151 38.1083 29.1101 38.3572 29.1716C38.9392 29.313 39.2487 29.7088 39.2185 30.3009C39.1882 30.888 38.8501 31.2556 38.253 31.3437C37.9956 31.382 37.7315 31.3736 37.4708 31.3736C32.8334 31.3736 28.1977 31.3736 23.562 31.3736Z" fill="#373737"/>
<path d="M23.5284 37.9915C18.8927 37.9915 14.257 37.9915 9.62126 37.9898C9.38409 37.9898 9.14188 38.0031 8.90976 37.9665C8.37823 37.8834 8.06201 37.5491 7.988 37.0335C7.90894 36.4813 8.15284 36.0522 8.67595 35.8543C8.95349 35.7479 9.27981 35.7362 9.58594 35.7362C18.928 35.7312 28.2717 35.7312 37.6138 35.7362C37.9182 35.7362 38.2462 35.7479 38.5238 35.8526C39.0452 36.0522 39.2941 36.478 39.2134 37.0318C39.1377 37.5457 38.8265 37.885 38.2916 37.9665C38.0578 38.0014 37.8173 37.9898 37.5801 37.9898C32.894 37.9915 28.2112 37.9915 23.5284 37.9915Z" fill="#373737"/>
<path d="M19.3233 18.1134C16.1156 18.1134 12.908 18.1134 9.69865 18.1118C9.43794 18.1118 9.17217 18.1217 8.9165 18.0785C8.35638 17.9854 8.0267 17.6361 7.98297 17.0806C7.93587 16.4918 8.22014 16.081 8.80044 15.923C9.04602 15.8565 9.31683 15.8532 9.57418 15.8532C16.1089 15.8499 22.6436 15.8499 29.1784 15.8549C29.4593 15.8549 29.8344 15.81 30.0026 15.9613C30.3222 16.2507 30.6788 16.6449 30.7359 17.0374C30.81 17.548 30.4365 17.9637 29.8697 18.0702C29.6157 18.1184 29.3499 18.1118 29.0892 18.1118C25.8345 18.1151 22.5797 18.1134 19.3233 18.1134Z" fill="#373737"/>
<path d="M41.5313 55.4179C42.5624 54.425 43.5581 53.4853 44.5304 52.5223C45.9752 51.0937 47.3966 49.6384 48.8414 48.2114C50.3149 46.7562 52.4679 46.7146 53.8758 48.0917C55.287 49.4738 55.2752 51.5876 53.8068 53.0695C50.6143 56.2927 47.4134 59.5092 44.1973 62.7108C42.6801 64.2209 40.5877 64.2159 39.0587 62.7241C37.4187 61.1225 35.7871 59.5126 34.1673 57.8893C32.7073 56.4274 32.6787 54.2886 34.0748 52.9082C35.4743 51.5244 37.6289 51.5527 39.1108 52.993C39.9401 53.798 40.7424 54.6245 41.5313 55.4179ZM52.7454 50.5548C52.5453 50.2172 52.4259 49.8713 52.1904 49.6434C51.6891 49.1594 50.9877 49.2659 50.3738 49.8812C47.8188 52.4375 45.2705 55.0021 42.7171 57.56C41.8694 58.4082 41.3715 58.4032 40.5036 57.5484C39.4943 56.5538 38.4969 55.5443 37.4742 54.563C36.9124 54.0241 36.1841 54.0225 35.6946 54.5081C35.2068 54.9921 35.2051 55.7189 35.7535 56.2694C37.3884 57.9093 39.0335 59.5392 40.6919 61.1524C41.2941 61.7379 41.9703 61.7229 42.5725 61.1208C45.7818 57.9159 48.9844 54.7044 52.1752 51.4812C52.4107 51.2434 52.5352 50.9024 52.7454 50.5548Z" fill="#373737"/>
</svg>
